<svg width="512" height="512" xmlns="http://www.w3.org/2000/svg">

 <g>
  <title>background</title>
  <rect fill="none" id="canvas_background" height="402" width="582" y="-1" x="-1"/>
 </g>
 <g>
  <title>Layer 1</title>
  <path fill="#000000" id="svg_4" d="m259.66,428.26c-3.87,0 -7,-3.13 -7,-7s3.13,-7 7,-7c27.65,0 53.64,-10.77 73.2,-30.33l55.84,-55.84c11.12,-11.12 11.12,-29.21 0,-40.33l-17.99,-17.99c-2.73,-2.73 -2.73,-7.17 0,-9.9c2.73,-2.73 7.17,-2.73 9.9,0l17.99,17.99c16.58,16.58 16.58,43.55 0,60.13l-55.84,55.84c-22.21,22.2 -51.72,34.43 -83.1,34.43z" class="st1"/>
  <path fill="#000000" id="svg_6" d="m358.76,254.92c-1.84,0 -3.65,-0.75 -4.95,-2.05c-0.32,-0.32 -0.62,-0.68 -0.87,-1.06c-0.25,-0.38 -0.47,-0.79 -0.64,-1.21c-0.18,-0.42 -0.31,-0.86 -0.4,-1.31c-0.09,-0.45 -0.14,-0.91 -0.14,-1.37s0.05,-0.92 0.14,-1.37c0.09,-0.44 0.22,-0.88 0.4,-1.31c0.17,-0.42 0.39,-0.83 0.64,-1.21s0.55,-0.74 0.87,-1.06c1.63,-1.62 4.04,-2.37 6.32,-1.91c0.44,0.09 0.89,0.22 1.31,0.4c0.42,0.17 0.83,0.39 1.21,0.64c0.38,0.26 0.74,0.55 1.06,0.87c0.32,0.32 0.61,0.68 0.87,1.06c0.25,0.38 0.47,0.79 0.64,1.21c0.18,0.43 0.31,0.87 0.4,1.31c0.09,0.45 0.14,0.91 0.14,1.37s-0.05,0.92 -0.14,1.37c-0.09,0.45 -0.22,0.89 -0.4,1.31c-0.17,0.42 -0.39,0.83 -0.64,1.21c-0.26,0.38 -0.55,0.74 -0.87,1.06c-0.32,0.32 -0.68,0.62 -1.06,0.87s-0.79,0.47 -1.21,0.64c-0.42,0.18 -0.87,0.31 -1.31,0.4c-0.45,0.09 -0.91,0.14 -1.37,0.14z" class="st1"/>
  <path fill="#000000" id="svg_8" d="m235.34,452.56c-1.79,0 -3.58,-0.68 -4.95,-2.05l-76.83,-76.83c-2.73,-2.73 -2.73,-7.17 0,-9.9l26.51,-26.51l0,-50.76c0,-5.46 2.13,-10.59 5.99,-14.45l45,-45c3.86,-3.86 8.99,-5.99 14.45,-5.99l19.64,0l8.27,-8.27c0.69,-0.69 1.33,-1.29 1.97,-1.84c16.78,-14.81 42.31,-14 58.16,1.84l14.93,14.93c2.73,2.73 2.73,7.17 0,9.9c-2.73,2.73 -7.17,2.73 -9.9,0l-14.93,-14.93c-10.63,-10.63 -27.78,-11.17 -39.03,-1.21c-0.03,0.03 -0.06,0.05 -0.09,0.08c-0.37,0.31 -0.78,0.7 -1.22,1.14l-10.32,10.32c-1.31,1.31 -3.09,2.05 -4.95,2.05l-22.53,0c-1.72,0 -3.33,0.67 -4.55,1.89l-45,45c-1.22,1.22 -1.89,2.83 -1.89,4.55l0,53.65c0,1.86 -0.74,3.64 -2.05,4.95l-23.61,23.61l71.88,71.88c2.73,2.73 2.73,7.17 0,9.9c-1.36,1.37 -3.15,2.05 -4.95,2.05z" class="st1"/>
  <path fill="#000000" id="svg_10" d="m219.61,498.52c-1.79,0 -3.58,-0.68 -4.95,-2.05l-109.27,-109.26c-2.73,-2.73 -2.73,-7.17 0,-9.9l30.85,-30.85c2.73,-2.73 7.17,-2.73 9.9,0l109.27,109.27c2.73,2.73 2.73,7.17 0,9.9l-30.85,30.85c-1.37,1.36 -3.16,2.04 -4.95,2.04zm-99.37,-116.26l99.37,99.37l20.95,-20.95l-99.37,-99.37l-20.95,20.95z" class="st0"/>
  <path fill="#000000" id="svg_13" d="m123.32,149.3c-1.84,0 -3.65,-0.75 -4.95,-2.05c-1.3,-1.3 -2.05,-3.1 -2.05,-4.95c0,-1.84 0.75,-3.65 2.05,-4.95c1.3,-1.3 3.11,-2.05 4.95,-2.05c1.85,0 3.65,0.75 4.95,2.05c1.3,1.3 2.05,3.11 2.05,4.95s-0.75,3.65 -2.05,4.95c-1.3,1.3 -3.1,2.05 -4.95,2.05z" class="st0"/>
  <path fill="#000000" id="svg_15" d="m175.99,246.83c-1.79,0 -3.58,-0.68 -4.95,-2.05l-21.75,-21.75c-2.73,-2.73 -2.73,-7.17 0,-9.9l83.9,-83.9c2.73,-2.73 7.17,-2.73 9.9,0l21.75,21.75c2.73,2.73 2.73,7.17 0,9.9l-83.9,83.9c-1.37,1.37 -3.16,2.05 -4.95,2.05zm-11.86,-28.75l11.85,11.85l74,-74l-11.85,-11.85l-74,74z" class="st1"/>
  <path fill="#000000" id="svg_17" d="m221.73,253.29c-1.72,0 -3.44,-0.63 -4.78,-1.89l-26.95,-25.25c-1.38,-1.3 -2.18,-3.1 -2.21,-4.99c-0.03,-1.9 0.71,-3.72 2.05,-5.06l46.32,-46.32c2.73,-2.73 7.17,-2.73 9.9,0c2.73,2.73 2.73,7.17 0,9.9l-41.21,41.21l16.73,15.67l9.49,-9.49c3.86,-3.86 8.99,-5.99 14.45,-5.99l19.64,0l5.05,-5.05l-18.13,-19.36c-2.64,-2.82 -2.5,-7.25 0.32,-9.89c2.82,-2.64 7.25,-2.5 9.89,0.32l22.81,24.36c1.31,1.4 1.99,3.26 1.88,5.17c-0.11,1.91 -0.99,3.69 -2.44,4.93c-0.37,0.31 -0.78,0.7 -1.22,1.14l-10.32,10.32c-1.31,1.31 -3.09,2.05 -4.95,2.05l-22.53,0c-1.72,0 -3.33,0.67 -4.55,1.89l-14.28,14.28c-1.38,1.37 -3.17,2.05 -4.96,2.05z" class="st1"/>
  <path fill="#000000" id="svg_19" d="m407.26,427.01c-1.72,0 -3.44,-0.63 -4.78,-1.89l-31.98,-29.95c-2.82,-2.64 -2.97,-7.07 -0.32,-9.89c2.64,-2.82 7.07,-2.97 9.89,-0.32l27.04,25.32l23.23,-23.22l-39.07,-41.73l-31,31c-2.73,2.73 -7.17,2.73 -9.9,0c-2.73,-2.73 -2.73,-7.17 0,-9.9l36.11,-36.11c1.34,-1.34 3.16,-2.07 5.06,-2.05c1.9,0.03 3.7,0.83 4.99,2.21l48.64,51.96c2.58,2.76 2.51,7.06 -0.16,9.73l-32.81,32.8c-1.35,1.36 -3.14,2.04 -4.94,2.04z" class="st1"/>
  <path fill="#000000" id="svg_21" d="m94.15,285.16c0,0 0,0 0,0c-1.86,0 -3.64,-0.74 -4.96,-2.06l-0.22,-0.22c-32.02,-32.02 -32.02,-84.12 0.01,-116.14l13.73,-13.73c2.73,-2.73 7.17,-2.73 9.9,0c2.73,2.73 2.73,7.17 0,9.9l-13.73,13.73c-24.97,24.97 -26.47,64.65 -4.5,91.39l156.12,-156.12l-43.45,-43.45l-62.11,62.11c-2.73,2.73 -7.17,2.73 -9.9,0c-2.73,-2.73 -2.73,-7.17 0,-9.9l67.06,-67.06c2.73,-2.73 7.17,-2.73 9.9,0l53.35,53.35c1.31,1.31 2.05,3.09 2.05,4.95s-0.74,3.64 -2.05,4.95l-166.25,166.25c-1.31,1.31 -3.09,2.05 -4.95,2.05z" class="st0"/>
  <path fill="#000000" id="svg_23" d="m284.23,142.73c-1.86,0 -3.64,-0.74 -4.95,-2.05l-98.06,-98.06c-2.73,-2.73 -2.73,-7.17 0,-9.9l8.97,-8.97c13.68,-13.68 35.94,-13.68 49.62,0l58.34,58.34c6.63,6.63 10.28,15.44 10.28,24.81s-3.65,18.18 -10.28,24.81l-8.97,8.97c-1.31,1.31 -3.09,2.05 -4.95,2.05zm-88.16,-105.06l88.16,88.16l4.02,-4.02l0,0c3.98,-3.98 6.18,-9.28 6.18,-14.91s-2.19,-10.93 -6.18,-14.91l-58.34,-58.34c-8.22,-8.22 -21.6,-8.22 -29.82,0l-4.02,4.02z" class="st0"/>
 </g>
</svg>